<?xml version="1.0" encoding="UTF-8"?>
<svg xmlns="http://www.w3.org/2000/svg" version="1.1" viewBox="0 0 30 30">
  <defs>
    <style>
      .cls-1 {
        fill: #0d63aa;
      }
    </style>
  </defs>
  <!-- Generator: Adobe Illustrator 28.6.0, SVG Export Plug-In . SVG Version: 1.2.0 Build 709)  -->
  <g>
    <g id="Camada_1">
      <path class="cls-1" d="M29.4,14.1c-.1,0-.2,0-.3,0-.9,0-1.9,0-2.8,0-.6,0-1.2.2-1.6.7-.3.3-.5.6-.8.8-.5.6-1.1,1.1-1.7,1.6-1.1.8-2.3,1.1-3.7,1.1-1.3,0-2.4-.4-3.5-1.1-.7-.5-1.4-.9-2.1-1.4-.9-.6-1.8-1-2.9-1.1-2.5-.3-4.7.2-6.6,2-.5.5-1,1-1.4,1.5,0,0,0,0-.1.2,0,0,0,0,0-.1-.4-.7-.8-1.4-1.3-2.1,0,0,0-.2,0-.3.7-.8,1.5-1.6,2.4-2.3,1.1-.8,2.3-1.2,3.6-1.3,1.4-.1,2.7,0,3.9.6.8.4,1.5.9,2.3,1.4.8.6,1.6,1.1,2.5,1.4,2.3.7,4.4.3,6.2-1.4.6-.5,1.1-1.1,1.7-1.7.5-.5,1-.8,1.7-.8.9,0,1.9,0,2.8,0,.1,0,.2,0,.3.2.4.7.8,1.4,1.3,2.1,0,0,0,0,0,.2Z"/>
    </g>
  </g>
</svg>