<?xml version="1.0" encoding="UTF-8"?>
<svg id="Camada_2" xmlns="http://www.w3.org/2000/svg" viewBox="0 0 7427.22 2524.39">
  <defs>
    <style>
      .cls-1 {
        fill: #8e9dae;
      }

      .cls-2 {
        fill: #0662a9;
      }
    </style>
  </defs>
  <g id="Camada_1-2" data-name="Camada_1">
    <path class="cls-2" d="M4732.31,1841.14c-18.85,0-30.01-.03-41.18,0-154.79.48-309.59.38-464.38,1.66-102.69.85-196.08,25.03-266.85,107.63-40.97,47.82-85.47,92.63-128.57,138.61-87.62,93.47-177.55,184.35-282.51,259.02-180.94,128.74-382.69,182.77-603.8,175.71-207.38-6.63-394.61-71.51-565.83-185.3-112.9-75.03-222.67-154.76-335.85-229.34-143.61-94.63-300.66-158.32-471.62-180.58-406.76-52.95-772.06,38.04-1076.84,323.75-82.1,76.96-157.77,160.76-236.36,241.46-7.26,7.45-14.29,15.13-23.56,24.98-5.88-7-11.24-11.92-14.85-17.9-69.07-114.37-137.88-228.9-206.93-343.28-8.96-14.85-14.45-28.16-.43-43.92,120.16-135.06,243.97-266.28,391.8-372.17,177.69-127.27,375.18-201.16,593.3-219.86,221.91-19.02,438.01.04,643.92,92.62,133.36,59.96,251.51,144.08,369.4,228.77,128.98,92.64,259.8,183.24,413.78,229.35,378.9,113.46,721.38,48.76,1015.45-222.33,96.72-89.16,187.82-185.09,275.1-283.58,76.93-86.8,169.22-124.92,282.84-123.9,154.79,1.39,309.61.4,464.41-.6,22.49-.15,36.69,6.04,48.62,26.14,68.23,114.87,137.83,228.94,206.81,343.37,4.2,6.97,7.07,14.74,14.13,29.7Z"/>
    <path class="cls-1" d="M2232.76,466.37c673.15-372.98,570.02,325.96,569.51,765.11.1,19.87-7.21,26.87-26.86,26.65-65.91-.74-131.85-1.27-197.74.23-25.75.58-26.61-12.67-26.58-31.99.39-190.02,1.07-380.05-.58-570.05,3.13-84.17-44.95-188.2-145.43-153.98-48.53,15.01-176.49,71.54-171.65,129.99-.84,197.66-1.15,395.32.05,592.97.17,28.5-6.46,37.99-36.35,36.8-62.95-2.51-126.08-1.29-189.12-.44-18.2.25-25.34-4.91-25.3-24.12.48-248.27.12-496.53,1.1-744.8.04-9.42,9.27-22.87,17.93-27.51,69.52-33.03,135.05-85,215.56-81.46,25.96,11.21,12.73,52.45,15.45,82.59Z"/>
    <path class="cls-1" d="M1884.74,767.75c31.24,542.42-715.8,702.4-916.41,232.04-248.55-652.82,819.09-912.45,916.41-232.04ZM1626.82,860.42c-9.72-107.79-16.33-263.26-105.03-350.63-365.32-284.31-417.44,500.44-182.18,652.25,191.4,130.33,295.19-132.79,287.21-301.61Z"/>
    <path class="cls-1" d="M4637.49,766.1c29.72,535.43-689.48,699.77-907.33,254.63-282.09-660.96,804.49-944.3,907.33-254.63ZM4127.36,446.98c-257.6,45.34-212.27,589.99-31.08,716.86,363.65,212.53,377.35-746.05,31.08-716.86Z"/>
    <path class="cls-1" d="M5605.6,1160.96c-455.26,390.97-887.55-291.5-19.73-445.73,19.33-5.51,29.37-13.65,27.65-35.36-2.86-36.06-2.12-72.42-5.62-108.39-4.54-153.72-196.41-180.27-271.23-70.83-19.62,23.16-23.88,68.89-50.56,84.07-63.71,1.32-127.45.82-199.16.82,94.6-285.45,785.3-326.71,781.02,30.23,0,202.41,0,404.81-.02,607.21q0,38.34-39.57,38.36c-63.04.01-126.09-.68-189.11.4-19.96.34-27.52-5.85-26.37-26.02,1.35-23.63.32-47.4.32-71.11-2.54-1.22-5.08-2.44-7.62-3.66ZM5610.48,789.69c-357.84,92.3-348.15,519.85-17.85,303.01,16.39-9.08,21.12-21.59,20.92-39.78-2.57-88.55,3.38-174.48-3.07-263.23Z"/>
    <path class="cls-1" d="M7427.22,990.44c-185.47,446.19-849.37,332.72-856.72-136.93-30.55-412.91,475.61-660.93,763.08-352.27,84.23,97.49,96.52,212.07,76,333.88-3.32,19.68-16.61,19.41-31.79,19.39-187.99-.26-373.25-.14-561.58-.15,39.56,275.5,329.04,391.02,486.49,132.16,3.27-6.52,14.5-13.87,21.11-13.08,32.81,3.92,65.3,10.45,103.4,17.01ZM6805.91,789.63c120.32,0,238.61.38,356.89-.93,7.12-.08,18.53-12.58,20.42-20.99,85.33-440.46-469.08-421.38-377.31,21.92Z"/>
    <path class="cls-1" d="M2899.08,1087.39c45.49-16.5,87.31-31.68,130.84-47.47,197.94,362.59,646.17-1.95,72.61-191.4-573.97-302.12,215.96-720.16,460.39-326.46-42.97,13.97-82.35,27.52-122.37,38.86-5.17,1.47-15.38-7.18-20.18-13.49-147.78-248.68-579.8,22.24-21.09,213.46,660.29,330.96-253.14,788.82-500.21,326.49Z"/>
    <path class="cls-1" d="M795.85,514.08c-42.54,31.93-83.49,62.68-127.49,95.71-275-447.54-566.19,102.34-352.08,405.45,125.13,209.65,355.71,105.19,425.56-90.21,8.53-18.47,17.62-23.89,37.14-16.34,19.43,7.52,40.09,12.14,60.49,16.8,14.73,3.37,18.1,9.72,13.28,24.36C741.94,1413.61,61.32,1364.14,3.52,897.61c-28.77-228.95,120.53-473.75,376.47-523.77,151.51-27.58,328.04-1.7,415.86,140.25Z"/>
    <path class="cls-1" d="M4985.63,632.99c0,197.65-.67,395.31.72,592.95.21,29.75-8.46,37.13-37.08,36.07-60.1-2.22-120.39-2.06-180.51-.04-26.82.9-33.61-7.61-33.52-33.66.43-369.51,1.64-739.07-.07-1108.56-.34-23.82,7.91-35.81,28.8-45.39,70.8-27.51,136.31-89.96,216.32-70.76,14.52,204.14.75,422.26,5.34,629.39Z"/>
    <path class="cls-1" d="M6637.37,401.13c-23.56,41.2-46.17,80.74-69.64,121.78-121.16-105.86-317-33.89-332.42,104-.46,200.56-.84,401.12.3,601.67.15,27.06-8.09,34.02-34.07,33.32-63.97-1.72-128.03-1.17-192.03-.21-20.23.3-28.89-4.58-28.83-26.97.66-252.13.23-504.26,1.14-756.39.04-9.67,8.3-23.68,16.74-28.24,47.84-25.84,96.48-50.36,145.94-72.91,8.91-4.06,25.53-.44,34.11,5.79,21.23,15.41,38.78,46.47,59.88,48.38,19.16,1.73,41.14-26.57,61.7-41.86,99-80.17,245.11-81.51,337.18,11.65Z"/>
  </g>
</svg>